  0
SECTION
  2
HEADER
  9
$ACADVER
  1
AC1009
  9
$DWGCODEPAGE
  3
ansi_1257
  9
$INSBASE
 10
0.0
 20
0.0
 30
0.0
  9
$EXTMIN
 10
-52.5
 20
-52.5
 30
0.0
  9
$EXTMAX
 10
152.706998927403
 20
52.5
 30
0.0
  9
$LIMMIN
 10
0.0
 20
0.0
  9
$LIMMAX
 10
12.0
 20
9.0
  9
$ORTHOMODE
 70
     0
  9
$REGENMODE
 70
     1
  9
$FILLMODE
 70
     1
  9
$QTEXTMODE
 70
     0
  9
$MIRRTEXT
 70
     1
  9
$DRAGMODE
 70
     2
  9
$LTSCALE
 40
1.0
  9
$OSMODE
 70
    37
  9
$ATTMODE
 70
     1
  9
$TEXTSIZE
 40
0.2
  9
$TRACEWID
 40
0.05
  9
$TEXTSTYLE
  7
STANDARD
  9
$CLAYER
  8
0
  9
$CELTYPE
  6
BYLAYER
  9
$CECOLOR
 62
   256
  9
$DIMSCALE
 40
1.0
  9
$DIMASZ
 40
0.18
  9
$DIMEXO
 40
0.0625
  9
$DIMDLI
 40
0.38
  9
$DIMRND
 40
0.0
  9
$DIMDLE
 40
0.0
  9
$DIMEXE
 40
0.18
  9
$DIMTP
 40
0.0
  9
$DIMTM
 40
0.0
  9
$DIMTXT
 40
0.18
  9
$DIMCEN
 40
0.09
  9
$DIMTSZ
 40
0.0
  9
$DIMTOL
 70
     0
  9
$DIMLIM
 70
     0
  9
$DIMTIH
 70
     1
  9
$DIMTOH
 70
     1
  9
$DIMSE1
 70
     0
  9
$DIMSE2
 70
     0
  9
$DIMTAD
 70
     0
  9
$DIMZIN
 70
     0
  9
$DIMBLK
  1

  9
$DIMASO
 70
     1
  9
$DIMSHO
 70
     1
  9
$DIMPOST
  1

  9
$DIMAPOST
  1

  9
$DIMALT
 70
     0
  9
$DIMALTD
 70
     2
  9
$DIMALTF
 40
25.4
  9
$DIMLFAC
 40
1.0
  9
$DIMTOFL
 70
     0
  9
$DIMTVP
 40
0.0
  9
$DIMTIX
 70
     0
  9
$DIMSOXD
 70
     0
  9
$DIMSAH
 70
     0
  9
$DIMBLK1
  1

  9
$DIMBLK2
  1

  9
$DIMSTYLE
  2
STANDARD
  9
$DIMCLRD
 70
     0
  9
$DIMCLRE
 70
     0
  9
$DIMCLRT
 70
     0
  9
$DIMTFAC
 40
1.0
  9
$DIMGAP
 40
0.09
  9
$LUNITS
 70
     2
  9
$LUPREC
 70
     4
  9
$SKETCHINC
 40
0.1
  9
$FILLETRAD
 40
0.5
  9
$AUNITS
 70
     0
  9
$AUPREC
 70
     0
  9
$MENU
  1
.
  9
$ELEVATION
 40
0.0
  9
$PELEVATION
 40
0.0
  9
$THICKNESS
 40
0.0
  9
$LIMCHECK
 70
     0
  9
$CHAMFERA
 40
0.0
  9
$CHAMFERB
 40
0.0
  9
$SKPOLY
 70
     0
  9
$TDCREATE
 40
2454910.5
  9
$TDUPDATE
 40
2458227.823144838
  9
$TDINDWG
 40
0.0000000116
  9
$TDUSRTIMER
 40
0.0000000116
  9
$USRTIMER
 70
     1
  9
$ANGBASE
 50
0.0
  9
$ANGDIR
 70
     0
  9
$PDMODE
 70
     0
  9
$PDSIZE
 40
0.0
  9
$PLINEWID
 40
0.0
  9
$COORDS
 70
     1
  9
$SPLFRAME
 70
     0
  9
$SPLINETYPE
 70
     6
  9
$SPLINESEGS
 70
     8
  9
$ATTDIA
 70
     0
  9
$ATTREQ
 70
     1
  9
$HANDLING
 70
     1
  9
$HANDSEED
  5
12B
  9
$SURFTAB1
 70
     6
  9
$SURFTAB2
 70
     6
  9
$SURFTYPE
 70
     6
  9
$SURFU
 70
     6
  9
$SURFV
 70
     6
  9
$UCSNAME
  2

  9
$UCSORG
 10
0.0
 20
0.0
 30
0.0
  9
$UCSXDIR
 10
1.0
 20
0.0
 30
0.0
  9
$UCSYDIR
 10
0.0
 20
1.0
 30
0.0
  9
$PUCSNAME
  2

  9
$PUCSORG
 10
0.0
 20
0.0
 30
0.0
  9
$PUCSXDIR
 10
1.0
 20
0.0
 30
0.0
  9
$PUCSYDIR
 10
0.0
 20
1.0
 30
0.0
  9
$USERI1
 70
     0
  9
$USERI2
 70
     0
  9
$USERI3
 70
     0
  9
$USERI4
 70
     0
  9
$USERI5
 70
     0
  9
$USERR1
 40
0.0
  9
$USERR2
 40
0.0
  9
$USERR3
 40
0.0
  9
$USERR4
 40
0.0
  9
$USERR5
 40
0.0
  9
$WORLDVIEW
 70
     1
  9
$SHADEDGE
 70
     3
  9
$SHADEDIF
 70
    70
  9
$TILEMODE
 70
     1
  9
$MAXACTVP
 70
    64
  9
$PLIMCHECK
 70
     0
  9
$PEXTMIN
 10
1.000000000000000E+20
 20
1.000000000000000E+20
 30
1.000000000000000E+20
  9
$PEXTMAX
 10
-1.000000000000000E+20
 20
-1.000000000000000E+20
 30
-1.000000000000000E+20
  9
$PLIMMIN
 10
0.0
 20
0.0
  9
$PLIMMAX
 10
12.0
 20
9.0
  9
$UNITMODE
 70
     0
  9
$VISRETAIN
 70
     1
  9
$PLINEGEN
 70
     0
  9
$PSLTSCALE
 70
     1
  0
ENDSEC
  0
SECTION
  2
TABLES
  0
TABLE
  2
VPORT
 70
     1
  0
VPORT
  2
*ACTIVE
 70
     0
 10
0.0
 20
0.0
 11
1.0
 21
1.0
 12
10.42990654205607
 22
4.5
 13
0.0
 23
0.0
 14
0.5
 24
0.5
 15
0.5
 25
0.5
 16
0.0
 26
0.0
 36
1.0
 17
0.0
 27
0.0
 37
0.0
 40
9.0
 41
1.972972972850329
 42
50.0
 43
0.0
 44
0.0
 50
0.0
 51
0.0
 71
     0
 72
   100
 73
     1
 74
     3
 75
     0
 76
     0
 77
     0
 78
     0
  0
ENDTAB
  0
TABLE
  2
LTYPE
 70
     2
  0
LTYPE
  2
CONTINUOUS
 70
     0
  3
Solid line
 72
    65
 73
     0
 40
0.0
  0
LTYPE
  2
CONTINUOUS2
 70
     0
  3
Solid Line
 72
    65
 73
     0
 40
0.0
  0
ENDTAB
  0
TABLE
  2
LAYER
 70
     2
  0
LAYER
  2
0
 70
     0
 62
     7
  6
CONTINUOUS
  0
LAYER
  2
LAYER_1
 70
     0
 62
    18
  6
CONTINUOUS
  0
ENDTAB
  0
TABLE
  2
STYLE
 70
     1
  0
STYLE
  2
STANDARD
 70
     0
 40
0.0
 41
1.0
 50
0.0
 71
     0
 42
0.2
  3
txt
  4

  0
ENDTAB
  0
TABLE
  2
VIEW
 70
     0
  0
ENDTAB
  0
TABLE
  2
UCS
 70
     0
  0
ENDTAB
  0
TABLE
  2
APPID
 70
     1
  0
APPID
  2
ACAD
 70
     0
  0
ENDTAB
  0
TABLE
  2
DIMSTYLE
 70
     1
  0
DIMSTYLE
  2
STANDARD
 70
     0
  3

  4

  5

  6

  7

 40
1.0
 41
0.18
 42
0.0625
 43
0.38
 44
0.18
 45
0.0
 46
0.0
 47
0.0
 48
0.0
140
0.18
141
0.09
142
0.0
143
25.4
144
1.0
145
0.0
146
1.0
147
0.09
 71
     0
 72
     0
 73
     1
 74
     1
 75
     0
 76
     0
 77
     0
 78
     0
170
     0
171
     2
172
     0
173
     0
174
     0
175
     0
176
     0
177
     0
178
     0
  0
ENDTAB
  0
ENDSEC
  0
SECTION
  2
BLOCKS
  0
BLOCK
  8
0
  2
$MODEL_SPACE
 70
     0
 10
0.0
 20
0.0
 30
0.0
  3
$MODEL_SPACE
  1

  0
ENDBLK
  5
21
  8
0
  0
BLOCK
 67
     1
  8
0
  2
$PAPER_SPACE
 70
     0
 10
0.0
 20
0.0
 30
0.0
  3
$PAPER_SPACE
  1

  0
ENDBLK
  5
1D
 67
     1
  8
0
  0
ENDSEC
  0
SECTION
  2
ENTITIES
  0
POLYLINE
  5
70
  8
LAYER_1
 66
     1
 10
0.0
 20
0.0
 30
0.0
 70
     1
  0
VERTEX
  5
79
  8
LAYER_1
 10
-29.10295324342674
 20
-32.98978943322884
 30
0.0
 42
0.1671677243346354
  0
VERTEX
  5
7A
  8
LAYER_1
 10
-2.748430130995339
 20
-43.90619436775621
 30
0.0
  0
VERTEX
  5
7B
  8
LAYER_1
 10
-2.749999999999995
 20
-44.0
 30
0.0
 42
0.4142135623730951
  0
VERTEX
  5
7C
  8
LAYER_1
 10
0.0000000000000057
 20
-46.75
 30
0.0
 42
0.4142135623730951
  0
VERTEX
  5
7D
  8
LAYER_1
 10
2.750000000000005
 20
-44.0
 30
0.0
  0
VERTEX
  5
7E
  8
LAYER_1
 10
2.748408227170341
 20
-43.90619940913449
 30
0.0
 42
0.1671677243346354
  0
VERTEX
  5
7F
  8
LAYER_1
 10
29.10293419029078
 20
-32.98980135677925
 30
0.0
  0
VERTEX
  5
80
  8
LAYER_1
 10
29.16815472394509
 20
-33.05724202047109
 30
0.0
 42
0.4142135623730951
  0
VERTEX
  5
81
  8
LAYER_1
 10
33.0572420204711
 20
-33.05724202047109
 30
0.0
 42
0.4142135623730951
  0
VERTEX
  5
82
  8
LAYER_1
 10
33.0572420204711
 20
-29.16815472394508
 30
0.0
  0
VERTEX
  5
83
  8
LAYER_1
 10
32.98978943322883
 20
-29.10295324342674
 30
0.0
 42
0.1671677243346354
  0
VERTEX
  5
84
  8
LAYER_1
 10
43.90619436775621
 20
-2.748430130995342
 30
0.0
  0
VERTEX
  5
85
  8
LAYER_1
 10
44.0
 20
-2.749999999999997
 30
0.0
 42
0.4142135623730951
  0
VERTEX
  5
86
  8
LAYER_1
 10
46.75
 20
0.0000000000000029
 30
0.0
 42
0.4142135623730951
  0
VERTEX
  5
87
  8
LAYER_1
 10
44.0
 20
2.750000000000003
 30
0.0
  0
VERTEX
  5
88
  8
LAYER_1
 10
43.90619940913449
 20
2.748408227170338
 30
0.0
 42
0.1671677243346354
  0
VERTEX
  5
89
  8
LAYER_1
 10
32.98980135677926
 20
29.10293419029078
 30
0.0
  0
VERTEX
  5
8A
  8
LAYER_1
 10
33.0572420204711
 20
29.16815472394509
 30
0.0
 42
0.4142135623730951
  0
VERTEX
  5
8B
  8
LAYER_1
 10
33.0572420204711
 20
33.0572420204711
 30
0.0
 42
0.4142135623730951
  0
VERTEX
  5
8C
  8
LAYER_1
 10
29.16815472394509
 20
33.0572420204711
 30
0.0
  0
VERTEX
  5
8D
  8
LAYER_1
 10
29.10295324342674
 20
32.98978943322883
 30
0.0
 42
0.1671677243346354
  0
VERTEX
  5
8E
  8
LAYER_1
 10
2.748430130995344
 20
43.90619436775621
 30
0.0
  0
VERTEX
  5
8F
  8
LAYER_1
 10
2.75
 20
44.0
 30
0.0
 42
0.4142135623730951
  0
VERTEX
  5
90
  8
LAYER_1
 10
0.0
 20
46.75
 30
0.0
 42
0.4142135623730951
  0
VERTEX
  5
91
  8
LAYER_1
 10
-2.75
 20
44.0
 30
0.0
  0
VERTEX
  5
92
  8
LAYER_1
 10
-2.748408227170342
 20
43.90619940913449
 30
0.0
 42
0.1671677243346354
  0
VERTEX
  5
93
  8
LAYER_1
 10
-29.10293419029079
 20
32.98980135677925
 30
0.0
  0
VERTEX
  5
94
  8
LAYER_1
 10
-29.16815472394509
 20
33.05724202047109
 30
0.0
 42
0.4142135623730951
  0
VERTEX
  5
95
  8
LAYER_1
 10
-33.0572420204711
 20
33.05724202047109
 30
0.0
 42
0.4142135623730951
  0
VERTEX
  5
96
  8
LAYER_1
 10
-33.0572420204711
 20
29.16815472394508
 30
0.0
  0
VERTEX
  5
97
  8
LAYER_1
 10
-32.98978943322884
 20
29.10295324342673
 30
0.0
 42
0.1671677243346354
  0
VERTEX
  5
98
  8
LAYER_1
 10
-43.90619436775621
 20
2.748430130995336
 30
0.0
  0
VERTEX
  5
99
  8
LAYER_1
 10
-44.0
 20
2.749999999999992
 30
0.0
 42
0.4142135623730951
  0
VERTEX
  5
9A
  8
LAYER_1
 10
-46.75
 20
-0.0000000000000086
 30
0.0
 42
0.4142135623730951
  0
VERTEX
  5
9B
  8
LAYER_1
 10
-44.0
 20
-2.750000000000008
 30
0.0
  0
VERTEX
  5
9C
  8
LAYER_1
 10
-43.90619940913449
 20
-2.748408227170344
 30
0.0
 42
0.1671677243346354
  0
VERTEX
  5
9D
  8
LAYER_1
 10
-32.98980135677926
 20
-29.10293419029079
 30
0.0
  0
VERTEX
  5
9E
  8
LAYER_1
 10
-33.05724202047109
 20
-29.16815472394509
 30
0.0
 42
0.4142135623730951
  0
VERTEX
  5
9F
  8
LAYER_1
 10
-33.05724202047109
 20
-33.0572420204711
 30
0.0
 42
0.4142135623730951
  0
VERTEX
  5
A0
  8
LAYER_1
 10
-29.16815472394508
 20
-33.0572420204711
 30
0.0
  0
SEQEND
  5
129
  8
LAYER_1
  0
POLYLINE
  5
71
  8
LAYER_1
 66
     1
 10
0.0
 20
0.0
 30
0.0
 70
     1
  0
VERTEX
  5
A1
  8
LAYER_1
 10
144.706998927403
 20
-8.0
 30
0.0
 42
0.4142135623730951
  0
VERTEX
  5
A2
  8
LAYER_1
 10
152.706998927403
 20
0.0
 30
0.0
 42
0.4142135623730951
  0
VERTEX
  5
A3
  8
LAYER_1
 10
144.706998927403
 20
8.0
 30
0.0
  0
VERTEX
  5
A4
  8
LAYER_1
 10
84.51394780052969
 20
8.000727405814104
 30
0.0
 42
-0.2467089150709987
  0
VERTEX
  5
A5
  8
LAYER_1
 10
43.34039567072133
 20
29.63375135470167
 30
0.0
  0
VERTEX
  5
A6
  8
LAYER_1
 10
42.89245321383414
 20
30.27748632088866
 30
0.0
  0
VERTEX
  5
A7
  8
LAYER_1
 10
42.43519302034163
 20
30.91416627549213
 30
0.0
  0
VERTEX
  5
A8
  8
LAYER_1
 10
41.96871379604655
 20
31.54369257493876
 30
0.0
  0
VERTEX
  5
A9
  8
LAYER_1
 10
41.49311424675167
 20
32.16596657565526
 30
0.0
  0
VERTEX
  5
AA
  8
LAYER_1
 10
41.00849307825977
 20
32.7808896340683
 30
0.0
  0
VERTEX
  5
AB
  8
LAYER_1
 10
40.51494899637359
 20
33.3883631066046
 30
0.0
  0
VERTEX
  5
AC
  8
LAYER_1
 10
40.01258070689592
 20
33.98828834969083
 30
0.0
  0
VERTEX
  5
AD
  8
LAYER_1
 10
39.50148691562951
 20
34.58056671975369
 30
0.0
  0
VERTEX
  5
AE
  8
LAYER_1
 10
38.98176632837713
 20
35.16509957321988
 30
0.0
  0
VERTEX
  5
AF
  8
LAYER_1
 10
38.45351765094155
 20
35.74178826651607
 30
0.0
  0
VERTEX
  5
B0
  8
LAYER_1
 10
37.91683958912552
 20
36.31053415606899
 30
0.0
  0
VERTEX
  5
B1
  8
LAYER_1
 10
37.37183084873181
 20
36.8712385983053
 30
0.0
  0
VERTEX
  5
B2
  8
LAYER_1
 10
36.8185901355632
 20
37.4238029496517
 30
0.0
  0
VERTEX
  5
B3
  8
LAYER_1
 10
36.25721615542243
 20
37.96812856653489
 30
0.0
  0
VERTEX
  5
B4
  8
LAYER_1
 10
35.68780761411227
 20
38.50411680538155
 30
0.0
  0
VERTEX
  5
B5
  8
LAYER_1
 10
35.11046321743551
 20
39.03166902261839
 30
0.0
  0
VERTEX
  5
B6
  8
LAYER_1
 10
34.52528167119489
 20
39.55068657467209
 30
0.0
  0
VERTEX
  5
B7
  8
LAYER_1
 10
33.93236168119318
 20
40.06107081796934
 30
0.0
  0
VERTEX
  5
B8
  8
LAYER_1
 10
33.33180195323315
 20
40.56272310893684
 30
0.0
  0
VERTEX
  5
B9
  8
LAYER_1
 10
32.72370119311756
 20
41.05554480400129
 30
0.0
  0
VERTEX
  5
BA
  8
LAYER_1
 10
32.10815810664919
 20
41.53943725958936
 30
0.0
  0
VERTEX
  5
BB
  8
LAYER_1
 10
31.48527139963077
 20
42.01430183212776
 30
0.0
  0
VERTEX
  5
BC
  8
LAYER_1
 10
30.8551397778651
 20
42.48003987804319
 30
0.0
  0
VERTEX
  5
BD
  8
LAYER_1
 10
30.21786194715493
 20
42.93655275376232
 30
0.0
  0
VERTEX
  5
BE
  8
LAYER_1
 10
29.57353661330302
 20
43.38374181571186
 30
0.0
  0
VERTEX
  5
BF
  8
LAYER_1
 10
28.92226248211215
 20
43.82150842031849
 30
0.0
  0
VERTEX
  5
C0
  8
LAYER_1
 10
28.26413825938507
 20
44.2497539240089
 30
0.0
  0
VERTEX
  5
C1
  8
LAYER_1
 10
27.59926265092455
 20
44.6683796832098
 30
0.0
  0
VERTEX
  5
C2
  8
LAYER_1
 10
26.92773436253336
 20
45.07728705434786
 30
0.0
  0
VERTEX
  5
C3
  8
LAYER_1
 10
26.24965210001426
 20
45.4763773938498
 30
0.0
  0
VERTEX
  5
C4
  8
LAYER_1
 10
25.56511456917001
 20
45.8655520581423
 30
0.0
  0
VERTEX
  5
C5
  8
LAYER_1
 10
24.87422047580339
 20
46.24471240365204
 30
0.0
  0
VERTEX
  5
C6
  8
LAYER_1
 10
24.17706852571715
 20
46.61375978680573
 30
0.0
  0
VERTEX
  5
C7
  8
LAYER_1
 10
23.47375742471406
 20
46.97259556403006
 30
0.0
  0
VERTEX
  5
C8
  8
LAYER_1
 10
22.76438587859689
 20
47.32112109175171
 30
0.0
  0
VERTEX
  5
C9
  8
LAYER_1
 10
22.04905259316839
 20
47.65923772639738
 30
0.0
  0
VERTEX
  5
CA
  8
LAYER_1
 10
21.32785627423134
 20
47.98684682439377
 30
0.0
  0
VERTEX
  5
CB
  8
LAYER_1
 10
20.6008956275885
 20
48.30384974216754
 30
0.0
  0
VERTEX
  5
CC
  8
LAYER_1
 10
19.86826935904264
 20
48.61014783614543
 30
0.0
  0
VERTEX
  5
CD
  8
LAYER_1
 10
19.13007617439651
 20
48.90564246275412
 30
0.0
  0
VERTEX
  5
CE
  8
LAYER_1
 10
18.38641477945289
 20
49.19023497842028
 30
0.0
  0
VERTEX
  5
CF
  8
LAYER_1
 10
17.63738388001454
 20
49.46382673957061
 30
0.0
  0
VERTEX
  5
D0
  8
LAYER_1
 10
16.88308218188422
 20
49.72631910263182
 30
0.0
  0
VERTEX
  5
D1
  8
LAYER_1
 10
16.1236083908647
 20
49.97761342403058
 30
0.0
  0
VERTEX
  5
D2
  8
LAYER_1
 10
15.35906121275875
 20
50.21761106019359
 30
0.0
  0
VERTEX
  5
D3
  8
LAYER_1
 10
14.58953935336912
 20
50.44621336754756
 30
0.0
  0
VERTEX
  5
D4
  8
LAYER_1
 10
13.81514151849859
 20
50.66332170251916
 30
0.0
  0
VERTEX
  5
D5
  8
LAYER_1
 10
13.03596641394991
 20
50.86883742153509
 30
0.0
  0
VERTEX
  5
D6
  8
LAYER_1
 10
12.25211274552586
 20
51.06266188102204
 30
0.0
  0
VERTEX
  5
D7
  8
LAYER_1
 10
11.4636792190292
 20
51.24469643740672
 30
0.0
  0
VERTEX
  5
D8
  8
LAYER_1
 10
10.67076454026269
 20
51.4148424471158
 30
0.0
  0
VERTEX
  5
D9
  8
LAYER_1
 10
9.873467415029094
 20
51.57300126657596
 30
0.0
  0
VERTEX
  5
DA
  8
LAYER_1
 10
9.071886549131184
 20
51.71907425221393
 30
0.0
  0
VERTEX
  5
DB
  8
LAYER_1
 10
8.266120648371722
 20
51.85296276045639
 30
0.0
  0
VERTEX
  5
DC
  8
LAYER_1
 10
7.456268418553474
 20
51.97456814773003
 30
0.0
  0
VERTEX
  5
DD
  8
LAYER_1
 10
6.642428565479202
 20
52.08379177046153
 30
0.0
  0
VERTEX
  5
DE
  8
LAYER_1
 10
5.824699794951671
 20
52.1805349850776
 30
0.0
  0
VERTEX
  5
DF
  8
LAYER_1
 10
5.00318081277365
 20
52.26469914800492
 30
0.0
  0
VERTEX
  5
E0
  8
LAYER_1
 10
4.1779703247479
 20
52.33618561567019
 30
0.0
  0
VERTEX
  5
E1
  8
LAYER_1
 10
3.349167036677187
 20
52.3948957445001
 30
0.0
  0
VERTEX
  5
E2
  8
LAYER_1
 10
2.516869654364275
 20
52.44073089092135
 30
0.0
  0
VERTEX
  5
E3
  8
LAYER_1
 10
1.68117688361193
 20
52.47359241136061
 30
0.0
  0
VERTEX
  5
E4
  8
LAYER_1
 10
0.8421874302229169
 20
52.4933816622446
 30
0.0
  0
VERTEX
  5
E5
  8
LAYER_1
 10
0.0
 20
52.5
 30
0.0
 42
0.4142135623730951
  0
VERTEX
  5
E6
  8
LAYER_1
 10
-52.5
 20
0.0
 30
0.0
 42
0.4142135623730951
  0
VERTEX
  5
E7
  8
LAYER_1
 10
0.0
 20
-52.5
 30
0.0
  0
VERTEX
  5
E8
  8
LAYER_1
 10
0.8406906010864491
 20
-52.49340518199013
 30
0.0
  0
VERTEX
  5
E9
  8
LAYER_1
 10
1.678194779296761
 20
-52.47368613966749
 30
0.0
  0
VERTEX
  5
EA
  8
LAYER_1
 10
2.512414355171821
 20
-52.44094099059249
 30
0.0
  0
VERTEX
  5
EB
  8
LAYER_1
 10
3.343251149252509
 20
-52.39526785232555
 30
0.0
  0
VERTEX
  5
EC
  8
LAYER_1
 10
4.170606982079712
 20
-52.33676484242707
 30
0.0
  0
VERTEX
  5
ED
  8
LAYER_1
 10
4.994383674194313
 20
-52.26553007845749
 30
0.0
  0
VERTEX
  5
EE
  8
LAYER_1
 10
5.814483046137195
 20
-52.18166167797722
 30
0.0
  0
VERTEX
  5
EF
  8
LAYER_1
 10
6.630806918449242
 20
-52.08525775854667
 30
0.0
  0
VERTEX
  5
F0
  8
LAYER_1
 10
7.443257111671338
 20
-51.97641643772627
 30
0.0
  0
VERTEX
  5
F1
  8
LAYER_1
 10
8.251735446344366
 20
-51.85523583307643
 30
0.0
  0
VERTEX
  5
F2
  8
LAYER_1
 10
9.05614374300921
 20
-51.72181406215759
 30
0.0
  0
VERTEX
  5
F3
  8
LAYER_1
 10
9.856383822206752
 20
-51.57624924253014
 30
0.0
  0
VERTEX
  5
F4
  8
LAYER_1
 10
10.65235750447788
 20
-51.41863949175452
 30
0.0
  0
VERTEX
  5
F5
  8
LAYER_1
 10
11.44396661036347
 20
-51.24908292739113
 30
0.0
  0
VERTEX
  5
F6
  8
LAYER_1
 10
12.23111296040442
 20
-51.06767766700039
 30
0.0
  0
VERTEX
  5
F7
  8
LAYER_1
 10
13.01369837514159
 20
-50.87452182814273
 30
0.0
  0
VERTEX
  5
F8
  8
LAYER_1
 10
13.79162467511589
 20
-50.66971352837855
 30
0.0
  0
VERTEX
  5
F9
  8
LAYER_1
 10
14.56479368086819
 20
-50.45335088526829
 30
0.0
  0
VERTEX
  5
FA
  8
LAYER_1
 10
15.33310721293937
 20
-50.22553201637236
 30
0.0
  0
VERTEX
  5
FB
  8
LAYER_1
 10
16.09646709187032
 20
-49.98635503925118
 30
0.0
  0
VERTEX
  5
FC
  8
LAYER_1
 10
16.85477513820192
 20
-49.73591807146516
 30
0.0
  0
VERTEX
  5
FD
  8
LAYER_1
 10
17.60793317247506
 20
-49.47431923057471
 30
0.0
  0
VERTEX
  5
FE
  8
LAYER_1
 10
18.35584301523062
 20
-49.20165663414028
 30
0.0
  0
VERTEX
  5
FF
  8
LAYER_1
 10
19.09840648700948
 20
-48.91802839972225
 30
0.0
  0
VERTEX
  5
100
  8
LAYER_1
 10
19.83552540835253
 20
-48.62353264488107
 30
0.0
  0
VERTEX
  5
101
  8
LAYER_1
 10
20.56710159980065
 20
-48.31826748717714
 30
0.0
  0
VERTEX
  5
102
  8
LAYER_1
 10
21.29303688189473
 20
-48.00233104417087
 30
0.0
  0
VERTEX
  5
103
  8
LAYER_1
 10
22.01323307517564
 20
-47.67582143342271
 30
0.0
  0
VERTEX
  5
104
  8
LAYER_1
 10
22.72759200018427
 20
-47.33883677249306
 30
0.0
  0
VERTEX
  5
105
  8
LAYER_1
 10
23.43601547746151
 20
-46.99147517894234
 30
0.0
  0
VERTEX
  5
106
  8
LAYER_1
 10
24.13840532754823
 20
-46.63383477033095
 30
0.0
  0
VERTEX
  5
107
  8
LAYER_1
 10
24.83466337098534
 20
-46.26601366421933
 30
0.0
  0
VERTEX
  5
108
  8
LAYER_1
 10
25.52469142831369
 20
-45.88810997816789
 30
0.0
  0
VERTEX
  5
109
  8
LAYER_1
 10
26.20839132007419
 20
-45.50022182973706
 30
0.0
  0
VERTEX
  5
10A
  8
LAYER_1
 10
26.88566486680771
 20
-45.10244733648723
 30
0.0
  0
VERTEX
  5
10B
  8
LAYER_1
 10
27.55641388905514
 20
-44.69488461597885
 30
0.0
  0
VERTEX
  5
10C
  8
LAYER_1
 10
28.22054020735735
 20
-44.27763178577231
 30
0.0
  0
VERTEX
  5
10D
  8
LAYER_1
 10
28.87794564225524
 20
-43.85078696342806
 30
0.0
  0
VERTEX
  5
10E
  8
LAYER_1
 10
29.52853201428969
 20
-43.41444826650648
 30
0.0
  0
VERTEX
  5
10F
  8
LAYER_1
 10
30.17220114400158
 20
-42.96871381256803
 30
0.0
  0
VERTEX
  5
110
  8
LAYER_1
 10
30.8088548519318
 20
-42.51368171917309
 30
0.0
  0
VERTEX
  5
111
  8
LAYER_1
 10
31.43839495862123
 20
-42.04945010388211
 30
0.0
  0
VERTEX
  5
112
  8
LAYER_1
 10
32.06072328461075
 20
-41.57611708425548
 30
0.0
  0
VERTEX
  5
113
  8
LAYER_1
 10
32.67574165044124
 20
-41.09378077785364
 30
0.0
  0
VERTEX
  5
114
  8
LAYER_1
 10
33.2833518766536
 20
-40.60253930223699
 30
0.0
  0
VERTEX
  5
115
  8
LAYER_1
 10
33.88345578378869
 20
-40.10249077496597
 30
0.0
  0
VERTEX
  5
116
  8
LAYER_1
 10
34.47595519238742
 20
-39.59373331360098
 30
0.0
  0
VERTEX
  5
117
  8
LAYER_1
 10
35.06075192299065
 20
-39.07636503570244
 30
0.0
  0
VERTEX
  5
118
  8
LAYER_1
 10
35.63774779613928
 20
-38.55048405883077
 30
0.0
  0
VERTEX
  5
119
  8
LAYER_1
 10
36.20684463237419
 20
-38.01618850054639
 30
0.0
  0
VERTEX
  5
11A
  8
LAYER_1
 10
36.76794425223626
 20
-37.47357647840973
 30
0.0
  0
VERTEX
  5
11B
  8
LAYER_1
 10
37.32094847626638
 20
-36.92274610998118
 30
0.0
  0
VERTEX
  5
11C
  8
LAYER_1
 10
37.86575912500543
 20
-36.36379551282118
 30
0.0
  0
VERTEX
  5
11D
  8
LAYER_1
 10
38.40227801899428
 20
-35.79682280449015
 30
0.0
  0
VERTEX
  5
11E
  8
LAYER_1
 10
38.93040697877383
 20
-35.22192610254849
 30
0.0
  0
VERTEX
  5
11F
  8
LAYER_1
 10
39.45004782488497
 20
-34.63920352455663
 30
0.0
  0
VERTEX
  5
120
  8
LAYER_1
 10
39.96110237786857
 20
-34.048753188075
 30
0.0
  0
VERTEX
  5
121
  8
LAYER_1
 10
40.46347245826551
 20
-33.45067321066399
 30
0.0
  0
VERTEX
  5
122
  8
LAYER_1
 10
40.95705988661669
 20
-32.84506170988404
 30
0.0
  0
VERTEX
  5
123
  8
LAYER_1
 10
41.44176648346298
 20
-32.23201680329555
 30
0.0
  0
VERTEX
  5
124
  8
LAYER_1
 10
41.91749406934527
 20
-31.61163660845896
 30
0.0
  0
VERTEX
  5
125
  8
LAYER_1
 10
42.38414446480445
 20
-30.98401924293467
 30
0.0
  0
VERTEX
  5
126
  8
LAYER_1
 10
42.84161949038139
 20
-30.34926282428312
 30
0.0
  0
VERTEX
  5
127
  8
LAYER_1
 10
43.28982096661697
 20
-29.7074654700647
 30
0.0
 42
-0.2461401018604954
  0
VERTEX
  5
128
  8
LAYER_1
 10
84.31730872437888
 20
-8.000729894932874
 30
0.0
  0
SEQEND
  5
12A
  8
LAYER_1
  0
ENDSEC
  0
EOF
